<svg width="98" height="60" viewBox="0 0 98 60" fill="none" xmlns="http://www.w3.org/2000/svg">
<path fill-rule="evenodd" clip-rule="evenodd" d="M32.9981 0.295476C31.9107 0.732703 0.681793 27.5522 0.274097 28.3989C-0.113692 29.2046 -0.0907231 29.9403 0.347597 30.742C0.593937 31.1924 5.71329 35.679 16.6608 45.0388C29.6171 56.1158 32.7544 58.717 33.3554 58.8801C35.7024 59.517 38.1044 57.8273 37.8161 55.7422C37.7545 55.2953 37.5139 54.7011 37.2817 54.4215C37.0496 54.1421 31.2105 49.0898 24.3057 43.1944L11.752 32.4754L53.4785 32.4665C94.0488 32.4578 95.2273 32.4488 96.0059 32.1459C98.5748 31.1461 98.5622 27.8726 95.9858 26.8695C95.2336 26.5766 93.6834 26.5655 53.4804 26.562L11.7558 26.5584L24.6051 15.5252C34.994 6.6045 37.4992 4.37063 37.6889 3.8576C38.1942 2.49096 37.4218 0.952712 35.917 0.32829C34.888 -0.098765 34.0029 -0.10861 32.9981 0.295476Z" fill="#071EB3"/>
</svg>
