<svg width="43" height="43" viewBox="0 0 43 43" fill="none" xmlns="http://www.w3.org/2000/svg">
<path fill-rule="evenodd" clip-rule="evenodd" d="M1.67054 12.9368C3.33365 8.56751 9.20121 2.77423 13.6546 1.10401C17.7968 -0.449398 17.9201 -0.442013 22.2986 1.62909C24.719 2.77423 27.3537 3.52295 29.744 3.74652C31.7794 3.93628 33.5312 4.35071 33.6379 4.66694C33.7445 4.98371 32.9025 5.73243 31.7667 6.3321C28.4463 8.08417 23.7082 13.5189 22.2929 17.1999C21.2487 19.9158 21.0764 21.3229 21.2735 25.5482C21.5454 31.3963 23.121 35.3409 26.812 39.4166L28.9914 41.8231L32.5965 39.9406C34.5916 38.8987 37.3824 36.7774 38.8456 35.1907C40.3001 33.6142 41.1991 32.866 40.8429 33.5278C39.8322 35.4064 34.6999 39.6842 31.9223 40.9637C23.1509 45.0037 12.3119 42.8897 5.88479 35.8858C-0.0905347 29.3737 -1.55368 21.4077 1.67054 12.9368ZM18.2371 10.035C19.7337 9.25019 20.0846 7.93171 19.0635 6.93116C17.9513 5.84137 17.4211 5.84589 16.2887 6.9549C15.1518 8.06952 15.1518 8.58332 16.2876 9.69678C16.9439 10.3394 17.4787 10.4326 18.2371 10.035ZM6.73939 32.7424C6.73939 27.1648 8.99548 22.0395 13.5711 17.2196C16.8275 13.79 16.1879 13.7549 12.4721 17.1603C8.5846 20.7238 6.09628 25.7656 5.72631 30.8305C5.54076 33.3759 5.66638 34.8463 6.09109 35.1038C6.53712 35.3737 6.73939 34.6379 6.73939 32.7424ZM41.9632 31.6278C41.3939 32.1812 41.3282 32.1162 41.6405 31.3116C41.8572 30.7548 42.1793 30.4415 42.3568 30.6154C42.5343 30.7887 42.3574 31.2444 41.9632 31.6278Z" fill="#071EB3"/>
</svg>
